<svg xmlns="http://www.w3.org/2000/svg" xmlns:xlink="http://www.w3.org/1999/xlink" fill="none" version="1.1" width="34.365806579589844" height="56.999969482421875" viewBox="0 0 34.365806579589844 56.999969482421875"><defs><clipPath id="master_svg0_0_1186"><rect x="0" y="0" width="34.365806579589844" height="56.999969482421875" rx="0"/></clipPath></defs><g style="mix-blend-mode:passthrough" clip-path="url(#master_svg0_0_1186)"><g><path d="M34.35489915228949,31.578C33.765299152289494,24.8804,28.99939915228949,19.3383,22.53839915228949,17.3337C25.24069915228949,15.6593,27.03409915228949,12.7586,27.03409915228949,9.43333C27.03409915228949,4.22141,22.612099152289492,0,17.18289915228949,0C11.729099152289491,0,7.33171915228949,4.22141,7.33171915228949,9.43333C7.33171915228949,12.7586,9.12506915228949,15.6593,11.827399152289491,17.3337C5.36639915228949,19.3383,0.6005021522894902,24.8804,0.010917652289490211,31.578C0.010917652289490211,31.696,-0.013648947710509788,31.7903,0.010917652289490211,31.9554C0.060050952289490214,32.545,0.6005021522894902,33.0166,1.2146691522894901,33.0166C1.90253915228949,33.0166,2.44298915228949,32.4742,2.44298915228949,31.8375C3.08171915228949,24.5502,9.44444915228949,18.8666,17.18289915228949,18.8666C24.92139915228949,18.8666,31.25949915228949,24.5502,31.92279915228949,31.8375C31.92279915228949,32.4742,32.46329915228949,33.0166,33.15109915228949,33.0166C33.765299152289494,33.0166,34.30569915228949,32.545,34.35489915228949,31.9554C34.37949915228949,31.7903,34.35489915228949,31.696,34.35489915228949,31.578C34.35489915228949,31.578,34.35489915228949,31.578,34.35489915228949,31.578ZM9.78836915228949,9.43333C9.78836915228949,5.5185,13.10489915228949,2.35833,17.18289915228949,2.35833C21.26089915228949,2.35833,24.57739915228949,5.5185,24.57739915228949,9.43333C24.57739915228949,13.3482,21.26089915228949,16.5083,17.18289915228949,16.5083C13.10489915228949,16.5083,9.78836915228949,13.3482,9.78836915228949,9.43333C9.78836915228949,9.43333,9.78836915228949,9.43333,9.78836915228949,9.43333Z" fill="#3FBDF2" fill-opacity="1"/></g><g><path d="M10.813094216308594,38.249969482421875Q11.438084216308594,39.718719482421875,12.990184216308593,41.07808948242187Q14.542284216308595,42.437469482421875,16.703684216308595,43.20829948242188L16.542284216308595,44.39579948242188Q14.589084216308594,43.70829948242188,12.818284216308594,42.42704948242188Q11.052674216308594,41.14579948242188,10.109964216308594,39.36975948242188Q8.766214216308594,41.16142948242187,6.531844216308594,42.52600948242188Q4.302674216308594,43.88538948242187,2.172467216308594,44.42704948242188L2.3183042163085936,43.24475948242188Q4.672464216308594,42.49475948242188,6.740174216308594,41.04684948242188Q8.813094216308594,39.593719482421875,9.724554216308594,37.89580248242188L10.990174216308594,37.89580248242188L10.813094216308594,38.249969482421875ZM8.813094216308594,52.66146948242188L7.599554216308594,52.66146948242188L8.974554216308594,42.906219482421875L10.172464216308594,42.906219482421875L8.813094216308594,52.66146948242188ZM26.000584216308592,42.64579948242188Q26.000584216308592,44.42184948242188,26.589084216308592,46.11975948242188Q27.182884216308594,47.81766948242188,28.349584216308592,49.171869482421876Q29.521384216308594,50.520769482421876,31.151684216308595,51.25516948242188L30.990184216308595,52.437469482421875Q28.573484216308593,51.416669482421874,27.130784216308594,49.42706948242187Q25.693284216308594,47.43226948242187,25.214084216308592,45.11454948242188Q24.208884216308594,47.44786948242188,22.255784216308594,49.40096948242187Q20.302684216308595,51.354169482421874,17.406884216308594,52.390569482421874L17.568284216308594,51.17706948242187Q19.599584216308592,50.34376948242188,21.188084216308592,48.859369482421876Q22.781884216308594,47.36976948242187,23.740184216308595,45.60413948242187Q24.703684216308595,43.83329948242188,24.943284216308594,42.16663948242187L25.521384216308594,38.08850948242188L26.672484216308593,38.08850948242188L26.094384216308594,42.07288948242187L26.000584216308592,42.64579948242188Z" fill="#3FBDF2" fill-opacity="1"/><path d="M10.813094216308594,38.249969482421875Q11.438084216308594,39.718719482421875,12.990184216308593,41.07808948242187Q14.542284216308595,42.437469482421875,16.703684216308595,43.20829948242188L16.542284216308595,44.39579948242188Q14.589084216308594,43.70829948242188,12.818284216308594,42.42704948242188Q11.052674216308594,41.14579948242188,10.109964216308594,39.36975948242188Q8.766214216308594,41.16142948242187,6.531844216308594,42.52600948242188Q4.302674216308594,43.88538948242187,2.172467216308594,44.42704948242188L2.3183042163085936,43.24475948242188Q4.672464216308594,42.49475948242188,6.740174216308594,41.04684948242188Q8.813094216308594,39.593719482421875,9.724554216308594,37.89580248242188L10.990174216308594,37.89580248242188L10.813094216308594,38.249969482421875ZM8.813094216308594,52.66146948242188L7.599554216308594,52.66146948242188L8.974554216308594,42.906219482421875L10.172464216308594,42.906219482421875L8.813094216308594,52.66146948242188ZM26.000584216308592,42.64579948242188Q26.000584216308592,44.42184948242188,26.589084216308592,46.11975948242188Q27.182884216308594,47.81766948242188,28.349584216308592,49.171869482421876Q29.521384216308594,50.520769482421876,31.151684216308595,51.25516948242188L30.990184216308595,52.437469482421875Q28.573484216308593,51.416669482421874,27.130784216308594,49.42706948242187Q25.693284216308594,47.43226948242187,25.214084216308592,45.11454948242188Q24.208884216308594,47.44786948242188,22.255784216308594,49.40096948242187Q20.302684216308595,51.354169482421874,17.406884216308594,52.390569482421874L17.568284216308594,51.17706948242187Q19.599584216308592,50.34376948242188,21.188084216308592,48.859369482421876Q22.781884216308594,47.36976948242187,23.740184216308595,45.60413948242187Q24.703684216308595,43.83329948242188,24.943284216308594,42.16663948242187L25.521384216308594,38.08850948242188L26.672484216308593,38.08850948242188L26.094384216308594,42.07288948242187L26.000584216308592,42.64579948242188Z" fill-opacity="0" stroke-opacity="1" stroke="#3FBDF2" fill="none" stroke-width="1"/></g></g></svg>