<svg xmlns="http://www.w3.org/2000/svg" xmlns:xlink="http://www.w3.org/1999/xlink" fill="none" version="1.1" width="34.324649810791016" height="56.54100799560547" viewBox="0 0 34.324649810791016 56.54100799560547"><defs><clipPath id="master_svg0_0_662"><rect x="0" y="0" width="34.324649810791016" height="56.54100799560547" rx="0"/></clipPath></defs><g style="mix-blend-mode:passthrough" clip-path="url(#master_svg0_0_662)"><g><path d="M26.892796185302736,25.1183C26.892796185302736,25.1183,29.804296185302736,25.1183,29.804296185302736,25.1183C30.481296185302735,25.1183,31.030096185302735,25.6546,31.030096185302735,26.3162C31.030096185302735,26.9778,30.481296185302735,27.5141,29.804296185302736,27.5141C29.804296185302736,27.5141,25.666896185302733,27.5141,25.666896185302733,27.5141C24.989896185302733,27.5141,24.440996185302733,26.9778,24.440996185302733,26.3162C24.440996185302733,26.2195,24.452696185302734,26.1255,24.474796185302733,26.0354C24.452296185302735,25.9435,24.440996185302733,25.8493,24.440996185302733,25.7547C24.440996185302733,25.7547,24.440996185302733,21.7867,24.440996185302733,21.7867C24.440996185302733,21.1251,24.989896185302733,20.5888,25.666896185302733,20.5888C26.343896185302736,20.5888,26.892796185302736,21.1251,26.892796185302736,21.7867C26.892796185302736,21.7867,26.892796185302736,25.1183,26.892796185302736,25.1183C26.892796185302736,25.1183,26.892796185302736,25.1183,26.892796185302736,25.1183ZM29.191296185302733,15.2731C28.514296185302733,15.2731,27.965396185302733,14.7368,27.965396185302733,14.0753C27.965396185302733,14.0753,27.965396185302733,2.69525,27.965396185302733,2.69525C27.965396185302733,2.52985,27.828196185302733,2.39577,27.658996185302733,2.39577C27.658996185302733,2.39577,2.758236185302734,2.39577,2.758236185302734,2.39577C2.5889861853027343,2.39577,2.451766185302734,2.52985,2.451766185302734,2.69525C2.451766185302734,2.69525,2.451766185302734,30.8457,2.451766185302734,30.8457C2.451766185302734,31.0111,2.5889861853027343,31.1452,2.758236185302734,31.1452C2.758236185302734,31.1452,13.829496185302734,31.1452,13.829496185302734,31.1452C14.506496185302735,31.1452,15.055396185302735,31.6815,15.055396185302735,32.3431C15.055396185302735,33.0047,14.506496185302735,33.541,13.829496185302734,33.541C13.829496185302734,33.541,1.2258661853027344,33.541,1.2258661853027344,33.541C0.5488471853027344,33.541,-0.00000381469725851957,33.0047,-0.00000381469725851957,32.3431C-0.00000381469725851957,32.3431,-0.00000381469725851957,1.1979,-0.00000381469725851957,1.1979C-0.00000381469725851957,0.536316,0.5488471853027344,0,1.2258661853027344,0C1.2258661853027344,0,29.191296185302733,0,29.191296185302733,0C29.868296185302736,0,30.417196185302736,0.536316,30.417196185302736,1.1979C30.417196185302736,1.1979,30.417196185302736,14.0752,30.417196185302736,14.0752C30.417196185302736,14.7368,29.868296185302736,15.2731,29.191296185302733,15.2731C29.191296185302733,15.2731,29.191296185302733,15.2731,29.191296185302733,15.2731ZM5.631376185302734,7.71142C5.631376185302734,7.71142,23.674796185302736,7.71142,23.674796185302736,7.71142C24.351896185302735,7.71142,24.900696185302735,8.24773,24.900696185302735,8.90932C24.900696185302735,9.57089,24.351896185302735,10.1072,23.674796185302736,10.1072C23.674796185302736,10.1072,5.631376185302734,10.1072,5.631376185302734,10.1072C4.954336185302735,10.1072,4.405506185302734,9.57089,4.405506185302734,8.90932C4.405506185302734,8.24773,4.954336185302735,7.71142,5.631376185302734,7.71142C5.631376185302734,7.71142,5.631376185302734,7.71142,5.631376185302734,7.71142ZM5.822926185302735,15.4229C5.822926185302735,15.4229,13.944396185302734,15.4229,13.944396185302734,15.4229C14.621396185302734,15.4229,15.170296185302734,15.9592,15.170296185302734,16.6208C15.170296185302734,17.2823,14.621396185302734,17.8186,13.944396185302734,17.8186C13.944396185302734,17.8186,5.822926185302735,17.8186,5.822926185302735,17.8186C5.145906185302734,17.8186,4.597056185302734,17.2823,4.597056185302734,16.6208C4.597056185302734,15.9592,5.145906185302734,15.4229,5.822926185302735,15.4229C5.822926185302735,15.4229,5.822926185302735,15.4229,5.822926185302735,15.4229ZM5.822926185302735,23.1343C5.822926185302735,23.1343,13.944396185302734,23.1343,13.944396185302734,23.1343C14.621396185302734,23.1343,15.170296185302734,23.6706,15.170296185302734,24.3322C15.170296185302734,24.9938,14.621396185302734,25.5301,13.944396185302734,25.5301C13.944396185302734,25.5301,5.822926185302735,25.5301,5.822926185302735,25.5301C5.145906185302734,25.5301,4.597056185302734,24.9938,4.597056185302734,24.3322C4.597056185302734,23.6706,5.145906185302734,23.1343,5.822926185302735,23.1343C5.822926185302735,23.1343,5.822926185302735,23.1343,5.822926185302735,23.1343ZM17.468796185302736,15.4229C17.468796185302736,15.4229,19.154396185302733,15.4229,19.154396185302733,15.4229C19.831396185302733,15.4229,20.380296185302733,15.9592,20.380296185302733,16.6208C20.380296185302733,17.2823,19.831396185302733,17.8186,19.154396185302733,17.8186C19.154396185302733,17.8186,17.468796185302736,17.8186,17.468796185302736,17.8186C16.791796185302733,17.8186,16.242896185302733,17.2823,16.242896185302733,16.6208C16.242896185302733,15.9592,16.791796185302733,15.4229,17.468796185302736,15.4229C17.468796185302736,15.4229,17.468796185302736,15.4229,17.468796185302736,15.4229ZM25.666896185302733,33.541C20.885296185302735,33.541,17.009096185302734,29.7533,17.009096185302734,25.0809C17.009096185302734,20.4085,20.885296185302735,16.6208,25.666896185302733,16.6208C30.448396185302734,16.6208,34.32459618530273,20.4085,34.32459618530273,25.0809C34.32459618530273,29.7533,30.448396185302734,33.541,25.666896185302733,33.541C25.666896185302733,33.541,25.666896185302733,33.541,25.666896185302733,33.541ZM25.666896185302733,31.4447C29.263596185302735,31.4447,32.179396185302735,28.5955,32.179396185302735,25.0809C32.179396185302735,21.5662,29.263596185302735,18.7171,25.666896185302733,18.7171C22.070096185302734,18.7171,19.154396185302733,21.5662,19.154396185302733,25.0809C19.154396185302733,28.5955,22.070096185302734,31.4447,25.666896185302733,31.4447C25.666896185302733,31.4447,25.666896185302733,31.4447,25.666896185302733,31.4447Z" fill="#3FBDF2" fill-opacity="1"/></g><g><path d="M13.4896,43.207677995605465Q13.8385,43.207677995605465,13.9844,43.36912799560547Q14.1302,43.53058799560547,14.0781,43.87433799560547L12.9583,51.82220799560547L0.640625,51.82220799560547L0.786458,50.87430799560547L11.9219,50.87430799560547L12.3698,47.82220799560547L2.44792,47.82220799560547L2.09375,46.87430799560547L12.4948,46.87430799560547L12.8802,44.15558799560547L1.9375,44.15558799560547L2.0625,43.207677995605465L7.66146,43.207677995605465L8.44792,37.53059099560547L9.61458,37.53059099560547L8.81771,43.207677995605465L13.4896,43.207677995605465ZM14.0781,38.47329799560547Q13.4062,39.81704799560547,11.9219,42.29621799560547L10.7188,42.29621799560547Q12.4792,39.25975799560547,12.8646,38.47329799560547L14.0781,38.47329799560547ZM4.81771,38.50454799560547L5.9375,42.32746799560547L4.84896,42.32746799560547L3.71354,38.50454799560547L4.81771,38.50454799560547ZM31.8698,39.676427995605465L31.7604,40.54100799560547L17.8385,40.54100799560547L17.5365,39.676427995605465L21.6979,39.676427995605465L21.0573,37.59829799560547L22.2708,37.59829799560547L22.974,39.676427995605465L26.6719,39.676427995605465Q27.2969,38.68162799560547,27.8906,37.59829799560547L29.1823,37.59829799560547Q28.5938,38.65038799560547,27.9531,39.676427995605465L31.8698,39.676427995605465ZM25.7292,51.20770799560547L28.1615,51.20770799560547L29.4896,41.69725799560547L30.5781,41.69725799560547L29.1198,52.04100799560547L26.0156,52.04100799560547L25.7292,51.20770799560547ZM23.6458,42.02538799560547Q24.0312,42.02538799560547,24.1719,42.18683799560547Q24.3177,42.34829799560547,24.2708,42.71808799560547L22.974,52.04100799560547L20.2865,52.04100799560547L19.9844,51.20770799560547L22.0312,51.20770799560547L22.4167,48.35350799560547L18.4323,48.35350799560547L17.9219,52.08790799560547L16.8646,52.08790799560547L18.2552,42.02538799560547L19.3125,42.02538799560547L18.9271,44.87433799560547L22.9271,44.87433799560547L23.1823,42.87433799560547L19.6979,42.87433799560547L19.375,42.02538799560547L23.6458,42.02538799560547ZM26.3021,42.54621799560547L27.1979,43.09308799560547L26.3385,49.30140799560547L25.3594,49.30140799560547L26.3021,42.54621799560547ZM18.8177,45.707677995605465L18.5417,47.54100799560547L22.526,47.54100799560547L22.8021,45.707677995605465L18.8177,45.707677995605465Z" fill="#3FBDF2" fill-opacity="1"/><path d="M13.4896,43.207677995605465Q13.8385,43.207677995605465,13.9844,43.36912799560547Q14.1302,43.53058799560547,14.0781,43.87433799560547L12.9583,51.82220799560547L0.640625,51.82220799560547L0.786458,50.87430799560547L11.9219,50.87430799560547L12.3698,47.82220799560547L2.44792,47.82220799560547L2.09375,46.87430799560547L12.4948,46.87430799560547L12.8802,44.15558799560547L1.9375,44.15558799560547L2.0625,43.207677995605465L7.66146,43.207677995605465L8.44792,37.53059099560547L9.61458,37.53059099560547L8.81771,43.207677995605465L13.4896,43.207677995605465ZM14.0781,38.47329799560547Q13.4062,39.81704799560547,11.9219,42.29621799560547L10.7188,42.29621799560547Q12.4792,39.25975799560547,12.8646,38.47329799560547L14.0781,38.47329799560547ZM4.81771,38.50454799560547L5.9375,42.32746799560547L4.84896,42.32746799560547L3.71354,38.50454799560547L4.81771,38.50454799560547ZM31.8698,39.676427995605465L31.7604,40.54100799560547L17.8385,40.54100799560547L17.5365,39.676427995605465L21.6979,39.676427995605465L21.0573,37.59829799560547L22.2708,37.59829799560547L22.974,39.676427995605465L26.6719,39.676427995605465Q27.2969,38.68162799560547,27.8906,37.59829799560547L29.1823,37.59829799560547Q28.5938,38.65038799560547,27.9531,39.676427995605465L31.8698,39.676427995605465ZM25.7292,51.20770799560547L28.1615,51.20770799560547L29.4896,41.69725799560547L30.5781,41.69725799560547L29.1198,52.04100799560547L26.0156,52.04100799560547L25.7292,51.20770799560547ZM23.6458,42.02538799560547Q24.0312,42.02538799560547,24.1719,42.18683799560547Q24.3177,42.34829799560547,24.2708,42.71808799560547L22.974,52.04100799560547L20.2865,52.04100799560547L19.9844,51.20770799560547L22.0312,51.20770799560547L22.4167,48.35350799560547L18.4323,48.35350799560547L17.9219,52.08790799560547L16.8646,52.08790799560547L18.2552,42.02538799560547L19.3125,42.02538799560547L18.9271,44.87433799560547L22.9271,44.87433799560547L23.1823,42.87433799560547L19.6979,42.87433799560547L19.375,42.02538799560547L23.6458,42.02538799560547ZM26.3021,42.54621799560547L27.1979,43.09308799560547L26.3385,49.30140799560547L25.3594,49.30140799560547L26.3021,42.54621799560547ZM18.8177,45.707677995605465L18.5417,47.54100799560547L22.526,47.54100799560547L22.8021,45.707677995605465L18.8177,45.707677995605465Z" fill-opacity="0" stroke-opacity="1" stroke="#3FBDF2" fill="none" stroke-width="1"/></g></g></svg>