<svg xmlns="http://www.w3.org/2000/svg" xmlns:xlink="http://www.w3.org/1999/xlink" fill="none" version="1.1" width="48" height="57" viewBox="0 0 48 57"><defs><clipPath id="master_svg0_0_119"><rect x="0" y="0" width="48" height="57" rx="0"/></clipPath><clipPath id="master_svg1_0_121"><rect x="4.169677734375" y="0" width="40.17425537109375" height="33.541015625" rx="0"/></clipPath></defs><g style="mix-blend-mode:passthrough" clip-path="url(#master_svg0_0_119)"><g style="mix-blend-mode:passthrough" clip-path="url(#master_svg1_0_121)"><g><path d="M41.665677734375,33.54098388671875C41.665677734375,33.54098388671875,6.8479477343749995,33.54098388671875,6.8479477343749995,33.54098388671875C5.374897734375,33.54098388671875,4.169677734375024,32.35718388671875,4.169677734375024,30.91028388671875C4.169677734375024,30.91028388671875,4.169677734375024,6.57665388671875,4.169677734375024,6.57665388671875C4.169677734375024,5.12977388671875,5.374897734375,3.94598388671875,6.8479477343749995,3.94598388671875C6.8479477343749995,3.94598388671875,41.665677734375,3.94598388671875,41.665677734375,3.94598388671875C43.138677734375,3.94598388671875,44.343977734375,5.12977388671875,44.343977734375,6.57665388671875C44.343977734375,6.57665388671875,44.343977734375,30.91028388671875,44.343977734375,30.91028388671875C44.343977734375,32.35718388671875,43.138677734375,33.54098388671875,41.665677734375,33.54098388671875C41.665677734375,33.54098388671875,41.665677734375,33.54098388671875,41.665677734375,33.54098388671875ZM6.8479477343749995,6.57665388671875C6.8479477343749995,6.57665388671875,6.8479477343749995,30.91028388671875,6.8479477343749995,30.91028388671875C6.8479477343749995,30.91028388671875,41.665677734375,30.91028388671875,41.665677734375,30.91028388671875C41.665677734375,30.91028388671875,41.665677734375,6.57665388671875,41.665677734375,6.57665388671875C41.665677734375,6.57665388671875,6.8479477343749995,6.57665388671875,6.8479477343749995,6.57665388671875C6.8479477343749995,6.57665388671875,6.8479477343749995,6.57665388671875,6.8479477343749995,6.57665388671875Z" fill="#3FBDF2" fill-opacity="1"/></g><g><path d="M5.8436126708984375,14.13983154296875C5.8436126708984375,14.13983154296875,42.335212670898436,14.13983154296875,42.335212670898436,14.13983154296875C42.335212670898436,14.13983154296875,42.335212670898436,16.770511542968748,42.335212670898436,16.770511542968748C42.335212670898436,16.770511542968748,5.8436126708984375,16.770511542968748,5.8436126708984375,16.770511542968748C5.8436126708984375,16.770511542968748,5.8436126708984375,14.13983154296875,5.8436126708984375,14.13983154296875C5.8436126708984375,14.13983154296875,5.8436126708984375,14.13983154296875,5.8436126708984375,14.13983154296875ZM5.8436126708984375,22.36071154296875C5.8436126708984375,22.36071154296875,42.335212670898436,22.36071154296875,42.335212670898436,22.36071154296875C42.335212670898436,22.36071154296875,42.335212670898436,24.991431542968748,42.335212670898436,24.991431542968748C42.335212670898436,24.991431542968748,5.8436126708984375,24.991431542968748,5.8436126708984375,24.991431542968748C5.8436126708984375,24.991431542968748,5.8436126708984375,22.36071154296875,5.8436126708984375,22.36071154296875C5.8436126708984375,22.36071154296875,5.8436126708984375,22.36071154296875,5.8436126708984375,22.36071154296875Z" fill="#3FBDF2" fill-opacity="1"/></g><g><path d="M15.88714599609375,15.784C15.88714599609375,15.784,18.56542599609375,15.784,18.56542599609375,15.784C18.56542599609375,15.784,18.56542599609375,30.9103,18.56542599609375,30.9103C18.56542599609375,30.9103,15.88714599609375,30.9103,15.88714599609375,30.9103C15.88714599609375,30.9103,15.88714599609375,15.784,15.88714599609375,15.784C15.88714599609375,15.784,15.88714599609375,15.784,15.88714599609375,15.784ZM29.27854599609375,15.784C29.27854599609375,15.784,31.95684599609375,15.784,31.95684599609375,15.784C31.95684599609375,15.784,31.95684599609375,30.9103,31.95684599609375,30.9103C31.95684599609375,30.9103,29.27854599609375,30.9103,29.27854599609375,30.9103C29.27854599609375,30.9103,29.27854599609375,15.784,29.27854599609375,15.784C29.27854599609375,15.784,29.27854599609375,15.784,29.27854599609375,15.784ZM17.22628599609375,0C17.96281599609375,0,18.56542599609375,0.591883,18.56542599609375,1.31532C18.56542599609375,1.31532,18.56542599609375,9.20733,18.56542599609375,9.20733C18.56542599609375,9.93077,17.96281599609375,10.5227,17.22628599609375,10.5227C16.48974999609375,10.5227,15.88714599609375,9.93077,15.88714599609375,9.20733C15.88714599609375,9.20733,15.88714599609375,1.31532,15.88714599609375,1.31532C15.88714599609375,0.591883,16.48974999609375,0,17.22628599609375,0C17.22628599609375,0,17.22628599609375,0,17.22628599609375,0ZM30.617745996093753,0C31.354245996093752,0,31.95684599609375,0.591883,31.95684599609375,1.31532C31.95684599609375,1.31532,31.95684599609375,9.20733,31.95684599609375,9.20733C31.95684599609375,9.93077,31.354245996093752,10.5227,30.617745996093753,10.5227C29.88114599609375,10.5227,29.27854599609375,9.93077,29.27854599609375,9.20733C29.27854599609375,9.20733,29.27854599609375,1.31532,29.27854599609375,1.31532C29.27854599609375,0.591883,29.88114599609375,0,30.617745996093753,0C30.617745996093753,0,30.617745996093753,0,30.617745996093753,0Z" fill="#3FBDF2" fill-opacity="1"/></g></g><g><path d="M13.8229,41.052080000000004L15.7917,41.052080000000004L15.6458,42L13.6979,42L12.2396,52.3333L8.47917,52.3333L8.16146,51.385400000000004L11.2344,51.385400000000004L12.5625,42L7.56771,42L7.25,41.052080000000004L12.6719,41.052080000000004L13.1042,38.01562L14.2552,38.01562L13.8229,41.052080000000004ZM6.36979,39.333330000000004Q6.73438,39.333330000000004,6.86979,39.49479Q7.01042,39.65104,6.95833,40.01562L5.375,51.1198L1.3125,51.1198Q0.989583,51.1198,0.828125,50.947900000000004Q0.671875,50.7708,0.734375,50.4375L2.30208,39.333330000000004L3.40625,39.333330000000004L2.67188,44.46875L5.23438,44.46875L5.82292,40.28125L3.77604,40.28125L3.40625,39.333330000000004L6.36979,39.333330000000004ZM9.05729,43.81771L10.1302,48.1719L9.07292,48.1719L7.98438,43.81771L9.05729,43.81771ZM2.5625,45.333330000000004L1.85417,50.239599999999996L4.41667,50.239599999999996L5.10417,45.333330000000004L2.5625,45.333330000000004ZM19.0417,38.18229L20.224,38.18229L21.5521,41L20.3385,41L19.0417,38.18229ZM30.6094,39Q31.1979,39,31.1979,39.5Q31.1979,39.63021,31.1823,39.708330000000004L29.375,52.5L25.8698,52.5L25.5677,51.6667L28.3698,51.6667L30.0312,39.947919999999996L22.9271,39.947919999999996L22.6094,39L30.6094,39ZM17.8229,52.5781L16.7031,52.5781L18.2865,41.38021L19.4062,41.38021L17.8229,52.5781ZM26.3542,49.947900000000004L21.2344,49.947900000000004Q20.5104,49.947900000000004,20.625,49.275999999999996L21.6458,42L22.7188,42L22.2396,45.333330000000004L25.9062,45.333330000000004L26.2552,42.88021L23.0573,42.88021L22.7344,42L26.7031,42Q27.1042,42,27.2604,42.16146Q27.4219,42.322919999999996,27.375,42.70312L26.3542,49.947900000000004ZM22.1146,46.19271L21.7292,49L25.4062,49L25.7917,46.19271L22.1146,46.19271ZM40.7188,44.333330000000004L47.0573,44.333330000000004L46.9271,45.166669999999996L40.0156,45.166669999999996Q38.8646,46.78125,37.0104,48.0469L36.5625,51.3281L40.3698,50.0781L40.2396,51.0677L35.9375,52.4427Q35.7917,52.4948,35.6823,52.4948Q35.474,52.4948,35.3906,52.349000000000004Q35.3125,52.2031,35.3438,51.963499999999996L35.7917,48.7812Q34.2865,49.6302,32.1615,50.286500000000004L32.3021,49.275999999999996Q34.1927,48.6823,35.9115,47.5833Q37.6302,46.479169999999996,38.7865,45.166669999999996L33.1198,45.166669999999996L33.25,44.333330000000004L39.6146,44.333330000000004L39.8698,42.48438L35.3125,42.48438L34.9896,41.666669999999996L39.9844,41.666669999999996L40.1927,40.15104L34.4792,40.15104L34.6094,39.333330000000004L40.3021,39.333330000000004L40.5104,37.84375L41.6302,37.84375L41.4219,39.333330000000004L47.0417,39.333330000000004L46.9271,40.15104L41.3125,40.15104L41.0885,41.666669999999996L45.8229,41.666669999999996L45.7135,42.48438L40.974,42.48438L40.7188,44.333330000000004ZM42.3698,49.0052Q43.8698,50.385400000000004,46.401,51.1042L46.2552,52.0938Q43.5833,51.3594,41.9115,49.9219Q40.2396,48.4792,39.2969,46.10938L40.3542,46.10938Q40.9896,47.6042,42.0312,48.6875Q43.25,47.4219,44.1458,46.34896L45.3281,46.34896Q44.3385,47.599000000000004,43.0104,49.0052L42.3698,49.0052Z" fill="#3FBDF2" fill-opacity="1"/><path d="M13.8229,41.052080000000004L15.7917,41.052080000000004L15.6458,42L13.6979,42L12.2396,52.3333L8.47917,52.3333L8.16146,51.385400000000004L11.2344,51.385400000000004L12.5625,42L7.56771,42L7.25,41.052080000000004L12.6719,41.052080000000004L13.1042,38.01562L14.2552,38.01562L13.8229,41.052080000000004ZM6.36979,39.333330000000004Q6.73438,39.333330000000004,6.86979,39.49479Q7.01042,39.65104,6.95833,40.01562L5.375,51.1198L1.3125,51.1198Q0.989583,51.1198,0.828125,50.947900000000004Q0.671875,50.7708,0.734375,50.4375L2.30208,39.333330000000004L3.40625,39.333330000000004L2.67188,44.46875L5.23438,44.46875L5.82292,40.28125L3.77604,40.28125L3.40625,39.333330000000004L6.36979,39.333330000000004ZM9.05729,43.81771L10.1302,48.1719L9.07292,48.1719L7.98438,43.81771L9.05729,43.81771ZM2.5625,45.333330000000004L1.85417,50.239599999999996L4.41667,50.239599999999996L5.10417,45.333330000000004L2.5625,45.333330000000004ZM19.0417,38.18229L20.224,38.18229L21.5521,41L20.3385,41L19.0417,38.18229ZM30.6094,39Q31.1979,39,31.1979,39.5Q31.1979,39.63021,31.1823,39.708330000000004L29.375,52.5L25.8698,52.5L25.5677,51.6667L28.3698,51.6667L30.0312,39.947919999999996L22.9271,39.947919999999996L22.6094,39L30.6094,39ZM17.8229,52.5781L16.7031,52.5781L18.2865,41.38021L19.4062,41.38021L17.8229,52.5781ZM26.3542,49.947900000000004L21.2344,49.947900000000004Q20.5104,49.947900000000004,20.625,49.275999999999996L21.6458,42L22.7188,42L22.2396,45.333330000000004L25.9062,45.333330000000004L26.2552,42.88021L23.0573,42.88021L22.7344,42L26.7031,42Q27.1042,42,27.2604,42.16146Q27.4219,42.322919999999996,27.375,42.70312L26.3542,49.947900000000004ZM22.1146,46.19271L21.7292,49L25.4062,49L25.7917,46.19271L22.1146,46.19271ZM40.7188,44.333330000000004L47.0573,44.333330000000004L46.9271,45.166669999999996L40.0156,45.166669999999996Q38.8646,46.78125,37.0104,48.0469L36.5625,51.3281L40.3698,50.0781L40.2396,51.0677L35.9375,52.4427Q35.7917,52.4948,35.6823,52.4948Q35.474,52.4948,35.3906,52.349000000000004Q35.3125,52.2031,35.3438,51.963499999999996L35.7917,48.7812Q34.2865,49.6302,32.1615,50.286500000000004L32.3021,49.275999999999996Q34.1927,48.6823,35.9115,47.5833Q37.6302,46.479169999999996,38.7865,45.166669999999996L33.1198,45.166669999999996L33.25,44.333330000000004L39.6146,44.333330000000004L39.8698,42.48438L35.3125,42.48438L34.9896,41.666669999999996L39.9844,41.666669999999996L40.1927,40.15104L34.4792,40.15104L34.6094,39.333330000000004L40.3021,39.333330000000004L40.5104,37.84375L41.6302,37.84375L41.4219,39.333330000000004L47.0417,39.333330000000004L46.9271,40.15104L41.3125,40.15104L41.0885,41.666669999999996L45.8229,41.666669999999996L45.7135,42.48438L40.974,42.48438L40.7188,44.333330000000004ZM42.3698,49.0052Q43.8698,50.385400000000004,46.401,51.1042L46.2552,52.0938Q43.5833,51.3594,41.9115,49.9219Q40.2396,48.4792,39.2969,46.10938L40.3542,46.10938Q40.9896,47.6042,42.0312,48.6875Q43.25,47.4219,44.1458,46.34896L45.3281,46.34896Q44.3385,47.599000000000004,43.0104,49.0052L42.3698,49.0052Z" fill-opacity="0" stroke-opacity="1" stroke="#3FBDF2" fill="none" stroke-width="1"/></g></g></svg>