<svg xmlns="http://www.w3.org/2000/svg" xmlns:xlink="http://www.w3.org/1999/xlink" fill="none" version="1.1" width="34.365806579589844" height="56.999969482421875" viewBox="0 0 34.365806579589844 56.999969482421875"><defs><clipPath id="master_svg0_0_695"><rect x="0" y="0" width="34.365806579589844" height="56.999969482421875" rx="0"/></clipPath></defs><g style="mix-blend-mode:passthrough" clip-path="url(#master_svg0_0_695)"><g><path d="M34.35490678168408,31.578C33.76530678168408,24.8804,28.99940678168408,19.3383,22.538406781684078,17.3337C25.24070678168408,15.6593,27.034106781684077,12.7586,27.034106781684077,9.43333C27.034106781684077,4.22141,22.61210678168408,0,17.18290678168408,0C11.729106781684079,0,7.331726781684078,4.22141,7.331726781684078,9.43333C7.331726781684078,12.7586,9.125076781684077,15.6593,11.827406781684079,17.3337C5.366406781684078,19.3383,0.6005097816840783,24.8804,0.010925281684078305,31.578C0.010925281684078305,31.696,-0.013641318315921695,31.7903,0.010925281684078305,31.9554C0.06005858168407831,32.545,0.6005097816840783,33.0166,1.2146767816840782,33.0166C1.9025467816840782,33.0166,2.4429967816840783,32.4742,2.4429967816840783,31.8375C3.081726781684078,24.5502,9.444456781684078,18.8666,17.18290678168408,18.8666C24.921406781684077,18.8666,31.259506781684077,24.5502,31.922806781684077,31.8375C31.922806781684077,32.4742,32.463306781684075,33.0166,33.15110678168408,33.0166C33.76530678168408,33.0166,34.30570678168408,32.545,34.35490678168408,31.9554C34.37950678168408,31.7903,34.35490678168408,31.696,34.35490678168408,31.578C34.35490678168408,31.578,34.35490678168408,31.578,34.35490678168408,31.578ZM9.788376781684079,9.43333C9.788376781684079,5.5185,13.104906781684079,2.35833,17.18290678168408,2.35833C21.260906781684078,2.35833,24.57740678168408,5.5185,24.57740678168408,9.43333C24.57740678168408,13.3482,21.260906781684078,16.5083,17.18290678168408,16.5083C13.104906781684079,16.5083,9.788376781684079,13.3482,9.788376781684079,9.43333C9.788376781684079,9.43333,9.788376781684079,9.43333,9.788376781684079,9.43333Z" fill="#3C3939" fill-opacity="1"/></g><g><path d="M10.813101845703125,38.249969482421875Q11.438091845703125,39.718719482421875,12.990191845703125,41.07808948242187Q14.542291845703126,42.437469482421875,16.703691845703126,43.20829948242188L16.542291845703126,44.39579948242188Q14.589091845703125,43.70829948242188,12.818291845703126,42.42704948242188Q11.052681845703125,41.14579948242188,10.109971845703125,39.36975948242188Q8.766221845703125,41.16142948242187,6.531851845703125,42.52600948242188Q4.302681845703125,43.88538948242187,2.172474845703125,44.42704948242188L2.318311845703125,43.24475948242188Q4.672471845703125,42.49475948242188,6.740181845703125,41.04684948242188Q8.813101845703125,39.593719482421875,9.724561845703125,37.89580248242188L10.990181845703125,37.89580248242188L10.813101845703125,38.249969482421875ZM8.813101845703125,52.66146948242188L7.599561845703125,52.66146948242188L8.974561845703125,42.906219482421875L10.172471845703125,42.906219482421875L8.813101845703125,52.66146948242188ZM26.000591845703124,42.64579948242188Q26.000591845703124,44.42184948242188,26.589091845703123,46.11975948242188Q27.182891845703125,47.81766948242188,28.349591845703124,49.171869482421876Q29.521391845703125,50.520769482421876,31.151691845703127,51.25516948242188L30.990191845703126,52.437469482421875Q28.573491845703124,51.416669482421874,27.130791845703126,49.42706948242187Q25.693291845703126,47.43226948242187,25.214091845703123,45.11454948242188Q24.208891845703125,47.44786948242188,22.255791845703126,49.40096948242187Q20.302691845703126,51.354169482421874,17.406891845703125,52.390569482421874L17.568291845703126,51.17706948242187Q19.599591845703124,50.34376948242188,21.188091845703124,48.859369482421876Q22.781891845703125,47.36976948242187,23.740191845703126,45.60413948242187Q24.703691845703126,43.83329948242188,24.943291845703126,42.16663948242187L25.521391845703125,38.08850948242188L26.672491845703124,38.08850948242188L26.094391845703125,42.07288948242187L26.000591845703124,42.64579948242188Z" fill="#3C3939" fill-opacity="1"/><path d="M10.813101845703125,38.249969482421875Q11.438091845703125,39.718719482421875,12.990191845703125,41.07808948242187Q14.542291845703126,42.437469482421875,16.703691845703126,43.20829948242188L16.542291845703126,44.39579948242188Q14.589091845703125,43.70829948242188,12.818291845703126,42.42704948242188Q11.052681845703125,41.14579948242188,10.109971845703125,39.36975948242188Q8.766221845703125,41.16142948242187,6.531851845703125,42.52600948242188Q4.302681845703125,43.88538948242187,2.172474845703125,44.42704948242188L2.318311845703125,43.24475948242188Q4.672471845703125,42.49475948242188,6.740181845703125,41.04684948242188Q8.813101845703125,39.593719482421875,9.724561845703125,37.89580248242188L10.990181845703125,37.89580248242188L10.813101845703125,38.249969482421875ZM8.813101845703125,52.66146948242188L7.599561845703125,52.66146948242188L8.974561845703125,42.906219482421875L10.172471845703125,42.906219482421875L8.813101845703125,52.66146948242188ZM26.000591845703124,42.64579948242188Q26.000591845703124,44.42184948242188,26.589091845703123,46.11975948242188Q27.182891845703125,47.81766948242188,28.349591845703124,49.171869482421876Q29.521391845703125,50.520769482421876,31.151691845703127,51.25516948242188L30.990191845703126,52.437469482421875Q28.573491845703124,51.416669482421874,27.130791845703126,49.42706948242187Q25.693291845703126,47.43226948242187,25.214091845703123,45.11454948242188Q24.208891845703125,47.44786948242188,22.255791845703126,49.40096948242187Q20.302691845703126,51.354169482421874,17.406891845703125,52.390569482421874L17.568291845703126,51.17706948242187Q19.599591845703124,50.34376948242188,21.188091845703124,48.859369482421876Q22.781891845703125,47.36976948242187,23.740191845703126,45.60413948242187Q24.703691845703126,43.83329948242188,24.943291845703126,42.16663948242187L25.521391845703125,38.08850948242188L26.672491845703124,38.08850948242188L26.094391845703125,42.07288948242187L26.000591845703124,42.64579948242188Z" fill-opacity="0" stroke-opacity="1" stroke="#3C3939" fill="none" stroke-width="1"/></g></g></svg>